<mxfile host="app.diagrams.net" modified="2024-03-07T09:51:59.254Z" agent="Mozilla/5.0 (Windows NT 10.0; Win64; x64) AppleWebKit/537.36 (KHTML, like Gecko) Chrome/122.0.0.0 Safari/537.36" etag="aKNDonxx9YcH92YjdDoy" version="24.0.2" type="device">
  <diagram name="Page-1" id="YUlN44A9gg_cxiwzPX0Z">
    <mxGraphModel dx="724" dy="420" grid="1" gridSize="10" guides="1" tooltips="1" connect="1" arrows="1" fold="1" page="1" pageScale="1" pageWidth="850" pageHeight="1100" math="0" shadow="0">
      <root>
        <mxCell id="0" />
        <mxCell id="1" parent="0" />
        <mxCell id="lnb0aBH8O5DxswNknv1L-1" value="Function Component" style="swimlane;whiteSpace=wrap;html=1;" vertex="1" parent="1">
          <mxGeometry x="320" y="220" width="650" height="170" as="geometry" />
        </mxCell>
        <mxCell id="lnb0aBH8O5DxswNknv1L-26" style="edgeStyle=orthogonalEdgeStyle;rounded=0;orthogonalLoop=1;jettySize=auto;html=1;entryX=0;entryY=0.5;entryDx=0;entryDy=0;" edge="1" parent="lnb0aBH8O5DxswNknv1L-1" source="lnb0aBH8O5DxswNknv1L-4" target="lnb0aBH8O5DxswNknv1L-5">
          <mxGeometry relative="1" as="geometry" />
        </mxCell>
        <mxCell id="lnb0aBH8O5DxswNknv1L-4" value="State Hook" style="rounded=1;whiteSpace=wrap;html=1;shadow=0;textShadow=0;glass=0;" vertex="1" parent="lnb0aBH8O5DxswNknv1L-1">
          <mxGeometry x="10" y="70" width="120" height="60" as="geometry" />
        </mxCell>
        <mxCell id="lnb0aBH8O5DxswNknv1L-27" style="edgeStyle=orthogonalEdgeStyle;rounded=0;orthogonalLoop=1;jettySize=auto;html=1;entryX=0;entryY=0.5;entryDx=0;entryDy=0;" edge="1" parent="lnb0aBH8O5DxswNknv1L-1" source="lnb0aBH8O5DxswNknv1L-5" target="lnb0aBH8O5DxswNknv1L-18">
          <mxGeometry relative="1" as="geometry" />
        </mxCell>
        <mxCell id="lnb0aBH8O5DxswNknv1L-5" value="Container" style="rounded=1;whiteSpace=wrap;html=1;" vertex="1" parent="lnb0aBH8O5DxswNknv1L-1">
          <mxGeometry x="180" y="70" width="120" height="60" as="geometry" />
        </mxCell>
        <mxCell id="lnb0aBH8O5DxswNknv1L-12" value="Presentation" style="rounded=1;whiteSpace=wrap;html=1;" vertex="1" parent="lnb0aBH8O5DxswNknv1L-1">
          <mxGeometry x="520" y="70" width="120" height="60" as="geometry" />
        </mxCell>
        <mxCell id="lnb0aBH8O5DxswNknv1L-17" value="" style="curved=1;endArrow=classic;html=1;rounded=0;startSize=6;" edge="1" parent="lnb0aBH8O5DxswNknv1L-1">
          <mxGeometry width="50" height="50" relative="1" as="geometry">
            <mxPoint x="120" y="90" as="sourcePoint" />
            <mxPoint x="110" y="100" as="targetPoint" />
            <Array as="points">
              <mxPoint x="120" y="110" />
              <mxPoint x="110" y="120" />
            </Array>
          </mxGeometry>
        </mxCell>
        <mxCell id="lnb0aBH8O5DxswNknv1L-28" style="edgeStyle=orthogonalEdgeStyle;rounded=0;orthogonalLoop=1;jettySize=auto;html=1;entryX=0;entryY=0.5;entryDx=0;entryDy=0;" edge="1" parent="lnb0aBH8O5DxswNknv1L-1" source="lnb0aBH8O5DxswNknv1L-18" target="lnb0aBH8O5DxswNknv1L-12">
          <mxGeometry relative="1" as="geometry" />
        </mxCell>
        <mxCell id="lnb0aBH8O5DxswNknv1L-18" value="Effect Hook" style="rounded=1;whiteSpace=wrap;html=1;shadow=0;textShadow=0;glass=0;" vertex="1" parent="lnb0aBH8O5DxswNknv1L-1">
          <mxGeometry x="350" y="70" width="120" height="60" as="geometry" />
        </mxCell>
        <mxCell id="lnb0aBH8O5DxswNknv1L-23" value="" style="curved=1;endArrow=classic;html=1;rounded=0;startSize=6;" edge="1" parent="lnb0aBH8O5DxswNknv1L-1">
          <mxGeometry width="50" height="50" relative="1" as="geometry">
            <mxPoint x="460" y="90" as="sourcePoint" />
            <mxPoint x="450" y="100" as="targetPoint" />
            <Array as="points">
              <mxPoint x="460" y="110" />
              <mxPoint x="450" y="120" />
            </Array>
          </mxGeometry>
        </mxCell>
        <mxCell id="lnb0aBH8O5DxswNknv1L-29" value="Return" style="text;html=1;align=center;verticalAlign=middle;whiteSpace=wrap;rounded=0;" vertex="1" parent="lnb0aBH8O5DxswNknv1L-1">
          <mxGeometry x="470" y="75" width="50" height="20" as="geometry" />
        </mxCell>
        <mxCell id="lnb0aBH8O5DxswNknv1L-7" style="edgeStyle=orthogonalEdgeStyle;rounded=0;orthogonalLoop=1;jettySize=auto;html=1;entryX=0.237;entryY=0.018;entryDx=0;entryDy=0;entryPerimeter=0;" edge="1" parent="1" source="lnb0aBH8O5DxswNknv1L-5">
          <mxGeometry relative="1" as="geometry">
            <mxPoint x="528.44" y="451.44000000000005" as="targetPoint" />
            <Array as="points">
              <mxPoint x="528" y="385" />
              <mxPoint x="528" y="385" />
            </Array>
          </mxGeometry>
        </mxCell>
        <mxCell id="lnb0aBH8O5DxswNknv1L-9" style="edgeStyle=orthogonalEdgeStyle;rounded=0;orthogonalLoop=1;jettySize=auto;html=1;entryX=0.62;entryY=0.008;entryDx=0;entryDy=0;entryPerimeter=0;endArrow=none;endFill=0;startArrow=classic;startFill=1;" edge="1" parent="1" source="lnb0aBH8O5DxswNknv1L-5">
          <mxGeometry relative="1" as="geometry">
            <mxPoint x="574.3999999999999" y="450.6400000000001" as="targetPoint" />
            <Array as="points">
              <mxPoint x="574" y="385" />
              <mxPoint x="574" y="385" />
            </Array>
          </mxGeometry>
        </mxCell>
        <mxCell id="lnb0aBH8O5DxswNknv1L-10" value="Request" style="text;html=1;align=center;verticalAlign=middle;whiteSpace=wrap;rounded=0;" vertex="1" parent="1">
          <mxGeometry x="470" y="390" width="60" height="30" as="geometry" />
        </mxCell>
        <mxCell id="lnb0aBH8O5DxswNknv1L-11" value="Response" style="text;html=1;align=center;verticalAlign=middle;whiteSpace=wrap;rounded=0;" vertex="1" parent="1">
          <mxGeometry x="580" y="390" width="60" height="30" as="geometry" />
        </mxCell>
        <mxCell id="lnb0aBH8O5DxswNknv1L-25" value="Backend" style="rounded=1;whiteSpace=wrap;html=1;" vertex="1" parent="1">
          <mxGeometry x="500" y="450" width="120" height="60" as="geometry" />
        </mxCell>
      </root>
    </mxGraphModel>
  </diagram>
</mxfile>
